<?xml version="1.0" encoding="UTF-8"?>
<svg width="512px" height="512px" viewBox="0 0 512 512" version="1.1" xmlns="http://www.w3.org/2000/svg">
    <g stroke="none" stroke-width="1" fill="none" fill-rule="evenodd">
        <path d="M256,448 C248.828,448 241.703,445.875 235.812,441.688 C215.344,426.875 196.094,413.094 179.5,401 L179.453,400.969 C131.953,364.5 93.031,334.391 66.312,304.969 C36.469,272.094 20,241.234 20,206.844 C20,173.188 31.969,142.469 53.062,119.656 C74.344,96.641 103.406,84 134.938,84 C158.875,84 180.562,93.016 199.031,110.641 C208.312,119.547 216.438,130.234 223.281,142.484 C230.156,130.266 238.25,119.578 247.562,110.641 C266.031,93.016 287.719,84 311.656,84 C343.188,84 372.25,96.641 393.531,119.656 C414.625,142.469 426.594,173.188 426.594,206.844 C426.594,241.234 410.125,272.094 380.281,304.969 C353.562,334.391 314.656,364.484 267.188,400.938 C250.531,413.062 231.219,426.906 210.688,441.781 C204.812,445.875 197.672,448 190.5,448 L256,448 Z" fill="#E53E3E"></path>
    </g>
</svg> 